<svg width="1545" height="775" viewBox="0 0 1545 775" fill="none" xmlns="http://www.w3.org/2000/svg">
<path d="M245.288 19.704C245.288 21.224 244.752 22.368 243.68 23.136C242.608 23.888 241.272 24.264 239.672 24.264C238.152 24.264 236.856 23.96 235.784 23.352L234.824 24.24H234.416V18.648H235.184C235.184 20.024 235.504 21.168 236.144 22.08C236.784 22.992 237.76 23.448 239.072 23.448C241.344 23.448 242.48 22.176 242.48 19.632C242.48 17.008 241.24 15.696 238.76 15.696H236.96V14.904H238.76C240.84 14.904 241.88 13.688 241.88 11.256C241.88 9.08 240.936 7.992 239.048 7.992C238.2 7.992 237.496 8.232 236.936 8.712C236.376 9.192 235.984 9.776 235.76 10.464C235.552 11.136 235.448 11.888 235.448 12.72H234.68V7.2H235.088L236.048 8.088C237.024 7.48 238.184 7.176 239.528 7.176C241 7.176 242.216 7.496 243.176 8.136C244.136 8.776 244.616 9.792 244.616 11.184C244.616 12.256 244.224 13.136 243.44 13.824C242.656 14.496 241.696 14.952 240.56 15.192C241.936 15.384 243.064 15.856 243.944 16.608C244.84 17.36 245.288 18.392 245.288 19.704ZM256.662 24.264C255.078 24.264 254.246 23.328 254.166 21.456C253.91 22.32 253.43 23.008 252.726 23.52C252.038 24.016 251.238 24.264 250.326 24.264C249.35 24.264 248.558 24.04 247.95 23.592C247.358 23.128 247.062 22.432 247.062 21.504C247.062 21.024 247.19 20.584 247.446 20.184C247.702 19.768 247.982 19.44 248.286 19.2C248.606 18.96 249.046 18.728 249.606 18.504C250.182 18.264 250.622 18.096 250.926 18C251.246 17.904 251.686 17.784 252.246 17.64L253.974 17.184V15.504C253.974 13.584 253.134 12.624 251.454 12.624C250.558 12.624 249.798 12.904 249.174 13.464C250.022 13.72 250.446 14.248 250.446 15.048C250.446 15.528 250.302 15.904 250.014 16.176C249.742 16.448 249.366 16.584 248.886 16.584C248.422 16.584 248.046 16.448 247.758 16.176C247.486 15.888 247.35 15.512 247.35 15.048C247.35 14.328 247.622 13.704 248.166 13.176C248.71 12.632 249.334 12.248 250.038 12.024C250.758 11.8 251.462 11.688 252.15 11.688C255.014 11.688 256.446 12.88 256.446 15.264V21.96C256.446 22.36 256.518 22.664 256.662 22.872C256.774 23.08 256.974 23.184 257.262 23.184C258.062 23.184 258.462 22.24 258.462 20.352H259.182C259.182 20.896 259.158 21.368 259.11 21.768C259.062 22.152 258.958 22.552 258.798 22.968C258.638 23.384 258.374 23.704 258.006 23.928C257.654 24.152 257.206 24.264 256.662 24.264ZM249.63 21.12C249.63 21.68 249.774 22.12 250.062 22.44C250.35 22.76 250.766 22.92 251.31 22.92C251.982 22.92 252.526 22.696 252.942 22.248C253.374 21.784 253.654 21.28 253.782 20.736C253.91 20.176 253.974 19.56 253.974 18.888V17.904L252.51 18.336C251.63 18.576 250.926 18.912 250.398 19.344C249.886 19.76 249.63 20.352 249.63 21.12ZM262.295 30.24C261.543 30.24 260.943 29.992 260.495 29.496C260.047 29.016 259.823 28.392 259.823 27.624C259.823 27.096 259.959 26.664 260.231 26.328C260.519 26.008 260.919 25.848 261.431 25.848C261.895 25.848 262.247 25.976 262.487 26.232C262.743 26.504 262.871 26.872 262.871 27.336C262.871 28.28 262.295 28.784 261.143 28.848C261.399 29.216 261.783 29.4 262.295 29.4C262.871 29.4 263.359 29.104 263.759 28.512C264.191 27.888 264.727 26.656 265.367 24.816L265.631 24.072L260.975 12.744H259.199V11.976H265.559V12.744H263.423L266.711 20.856L269.711 12.744H267.863V11.976H272.327V12.744H270.767L266.543 24.36C265.631 26.904 264.903 28.512 264.359 29.184C263.799 29.888 263.111 30.24 262.295 30.24ZM280.42 17.496H281.524V12.744H280.132V11.976H285.388V12.744H283.996V17.496H285.076C285.46 17.496 285.78 17.344 286.036 17.04C286.292 16.736 286.564 16.072 286.852 15.048C286.964 14.632 287.06 14.304 287.14 14.064C287.22 13.808 287.34 13.512 287.5 13.176C287.676 12.84 287.86 12.576 288.052 12.384C288.244 12.192 288.492 12.032 288.796 11.904C289.1 11.76 289.444 11.688 289.828 11.688C290.468 11.688 290.98 11.864 291.364 12.216C291.748 12.568 291.94 13.064 291.94 13.704C291.94 14.184 291.812 14.576 291.556 14.88C291.316 15.168 290.956 15.312 290.476 15.312C290.06 15.312 289.7 15.184 289.396 14.928C289.108 14.672 288.964 14.336 288.964 13.92C288.964 13.168 289.324 12.72 290.044 12.576C289.98 12.544 289.924 12.52 289.876 12.504C289.316 12.504 288.9 12.664 288.628 12.984C288.356 13.336 288.076 14.032 287.788 15.072C287.5 16.064 287.236 16.744 286.996 17.112C286.756 17.48 286.46 17.72 286.108 17.832C287.196 18.2 288.036 18.6 288.628 19.032C289.236 19.464 289.652 20.128 289.876 21.024C289.876 21.056 289.892 21.144 289.924 21.288C289.972 21.416 290.012 21.528 290.044 21.624L290.212 22.296C290.308 22.6 290.428 22.808 290.572 22.92C290.684 23.064 290.844 23.136 291.052 23.136C291.676 23.136 291.988 22.208 291.988 20.352H292.708C292.708 20.96 292.684 21.456 292.636 21.84C292.588 22.208 292.484 22.6 292.324 23.016C292.18 23.432 291.924 23.744 291.556 23.952C291.188 24.16 290.716 24.264 290.14 24.264C289.26 24.264 288.612 24.024 288.196 23.544C287.796 23.064 287.468 22.344 287.212 21.384L286.996 20.568C286.868 20.056 286.748 19.664 286.636 19.392C286.524 19.12 286.324 18.856 286.036 18.6C285.748 18.344 285.38 18.216 284.932 18.216H283.996V23.208H285.58V24H279.94V23.208H281.524V18.216H280.588C279.82 18.216 279.252 18.584 278.884 19.32C278.836 19.4 278.756 19.632 278.644 20.016C278.564 20.272 278.436 20.728 278.26 21.384C278.004 22.344 277.676 23.064 277.276 23.544C276.876 24.024 276.244 24.264 275.38 24.264C274.916 24.264 274.516 24.184 274.18 24.024C273.86 23.88 273.612 23.696 273.436 23.472C273.26 23.232 273.116 22.928 273.004 22.56C272.908 22.176 272.844 21.832 272.812 21.528C272.796 21.208 272.788 20.816 272.788 20.352H273.508C273.508 21.312 273.58 22.016 273.724 22.464C273.868 22.912 274.116 23.136 274.468 23.136C274.66 23.136 274.836 23.072 274.996 22.944C275.124 22.816 275.236 22.6 275.332 22.296C275.348 22.248 275.372 22.152 275.404 22.008C275.452 21.848 275.484 21.72 275.5 21.624C275.58 21.304 275.628 21.104 275.644 21.024C275.788 20.384 276.068 19.848 276.484 19.416C276.9 18.984 277.3 18.68 277.684 18.504C278.084 18.312 278.66 18.088 279.412 17.832C279.06 17.72 278.764 17.48 278.524 17.112C278.3 16.76 278.036 16.08 277.732 15.072C277.444 14 277.164 13.304 276.892 12.984C276.62 12.664 276.276 12.504 275.86 12.504C275.668 12.504 275.516 12.544 275.404 12.624C276.188 12.736 276.58 13.168 276.58 13.92C276.58 14.336 276.436 14.672 276.148 14.928C275.876 15.168 275.524 15.288 275.092 15.288C274.596 15.288 274.212 15.144 273.94 14.856C273.684 14.552 273.556 14.144 273.556 13.632C273.556 13.04 273.756 12.568 274.156 12.216C274.556 11.864 275.06 11.688 275.668 11.688C276.628 11.688 277.348 12.048 277.828 12.768C278.132 13.152 278.428 13.928 278.716 15.096C278.988 16.136 279.244 16.784 279.484 17.04C279.724 17.344 280.036 17.496 280.42 17.496ZM300.096 24.264C298.32 24.264 296.928 23.664 295.92 22.464C294.928 21.248 294.432 19.736 294.432 17.928C294.432 16.2 294.912 14.728 295.872 13.512C296.848 12.296 298.176 11.688 299.856 11.688C301.52 11.688 302.76 12.216 303.576 13.272C304.392 14.328 304.8 15.712 304.8 17.424C304.8 17.456 304.792 17.512 304.776 17.592C304.776 17.672 304.768 17.728 304.752 17.76H297.024V18.024C297.024 18.728 297.056 19.344 297.12 19.872C297.184 20.4 297.32 20.96 297.528 21.552C297.736 22.144 298.072 22.6 298.536 22.92C299 23.24 299.584 23.4 300.288 23.4C301.264 23.4 302.032 23.136 302.592 22.608C303.168 22.08 303.608 21.32 303.912 20.328L304.656 20.496C304.4 21.632 303.864 22.544 303.048 23.232C302.248 23.92 301.264 24.264 300.096 24.264ZM299.808 12.504C299.248 12.504 298.776 12.64 298.392 12.912C298.024 13.184 297.744 13.576 297.552 14.088C297.376 14.584 297.256 15.048 297.192 15.48C297.128 15.896 297.08 16.392 297.048 16.968H302.28C302.312 15.4 302.12 14.264 301.704 13.56C301.288 12.856 300.656 12.504 299.808 12.504ZM311.005 18.12V23.208H312.805V24H306.661V23.208H308.533V12.744H306.661V11.976H312.805V12.744H311.005V17.352H316.189V12.744H314.389V11.976H320.509V12.744H318.661V23.208H320.509V24H314.389V23.208H316.189V18.12H311.005ZM326.638 18.12V23.208H328.438V24H322.294V23.208H324.166V12.744H322.294V11.976H328.438V12.744H326.638V17.352H331.822V12.744H330.022V11.976H336.142V12.744H334.294V23.208H336.142V24H330.022V23.208H331.822V18.12H326.638ZM344.503 12.744H342.271V17.088H343.903C344.543 17.088 345.135 17.136 345.679 17.232C346.239 17.328 346.791 17.496 347.335 17.736C347.895 17.96 348.335 18.312 348.655 18.792C348.975 19.256 349.135 19.824 349.135 20.496C349.135 21.168 348.975 21.744 348.655 22.224C348.335 22.704 347.903 23.072 347.359 23.328C346.831 23.568 346.279 23.744 345.703 23.856C345.143 23.952 344.543 24 343.903 24H337.927V23.208H339.799V12.744H337.927V11.976H344.503V12.744ZM343.663 17.856H342.271V23.208H343.687C345.607 23.208 346.567 22.296 346.567 20.472C346.567 19.496 346.335 18.816 345.871 18.432C345.407 18.048 344.671 17.856 343.663 17.856ZM355.207 23.208V24H349.087V23.208H350.887V12.744H348.871V11.976H355.207V12.744H353.359V23.208H355.207ZM362.885 24.264C361.109 24.264 359.717 23.664 358.709 22.464C357.717 21.248 357.221 19.736 357.221 17.928C357.221 16.2 357.701 14.728 358.661 13.512C359.637 12.296 360.965 11.688 362.645 11.688C364.309 11.688 365.549 12.216 366.365 13.272C367.181 14.328 367.589 15.712 367.589 17.424C367.589 17.456 367.581 17.512 367.565 17.592C367.565 17.672 367.557 17.728 367.541 17.76H359.813V18.024C359.813 18.728 359.845 19.344 359.909 19.872C359.973 20.4 360.109 20.96 360.317 21.552C360.525 22.144 360.861 22.6 361.325 22.92C361.789 23.24 362.373 23.4 363.077 23.4C364.053 23.4 364.821 23.136 365.381 22.608C365.957 22.08 366.397 21.32 366.701 20.328L367.445 20.496C367.189 21.632 366.653 22.544 365.837 23.232C365.037 23.92 364.053 24.264 362.885 24.264ZM362.597 12.504C362.037 12.504 361.565 12.64 361.181 12.912C360.813 13.184 360.533 13.576 360.341 14.088C360.165 14.584 360.045 15.048 359.981 15.48C359.917 15.896 359.869 16.392 359.837 16.968H365.069C365.101 15.4 364.909 14.264 364.493 13.56C364.077 12.856 363.445 12.504 362.597 12.504ZM379.795 12.744V23.208H381.475V24H375.451V23.208H377.323V12.744H375.451V11.976H388.819V12.744H386.971V23.208H388.819V24H382.819V23.208H384.499V12.744H379.795ZM397.887 23.424C398.415 23.424 398.863 23.296 399.231 23.04C399.615 22.768 399.903 22.456 400.095 22.104C400.287 21.752 400.439 21.296 400.551 20.736C400.663 20.176 400.727 19.712 400.743 19.344C400.775 18.96 400.791 18.504 400.791 17.976C400.807 16.136 400.583 14.768 400.119 13.872C399.655 13.024 398.927 12.6 397.935 12.6C397.359 12.6 396.855 12.776 396.423 13.128C396.007 13.464 395.695 13.912 395.487 14.472C395.295 15.016 395.151 15.552 395.055 16.08C394.975 16.608 394.935 17.144 394.935 17.688V19.08C394.935 19.688 394.967 20.224 395.031 20.688C395.111 21.136 395.247 21.584 395.439 22.032C395.631 22.48 395.935 22.824 396.351 23.064C396.767 23.304 397.279 23.424 397.887 23.424ZM394.935 22.608V29.112H397.599V30H390.591V29.112H392.463V12.864H390.591V11.976C391.759 11.976 392.599 11.952 393.111 11.904C393.607 11.888 393.967 11.8 394.191 11.64L394.527 11.856V15.36C394.671 14.256 395.087 13.368 395.775 12.696C396.479 12.024 397.375 11.688 398.463 11.688C399.503 11.688 400.407 12.016 401.175 12.672C401.959 13.312 402.519 14.096 402.855 15.024C403.207 15.936 403.383 16.904 403.383 17.928C403.383 19.608 402.911 21.088 401.967 22.368C401.023 23.632 399.735 24.264 398.103 24.264C396.711 24.264 395.655 23.712 394.935 22.608ZM411.284 11.688C412.996 11.688 414.38 12.304 415.436 13.536C416.492 14.768 417.02 16.256 417.02 18C417.02 19.728 416.484 21.208 415.412 22.44C414.356 23.656 412.98 24.264 411.284 24.264C409.556 24.264 408.172 23.664 407.132 22.464C406.108 21.264 405.596 19.776 405.596 18C405.596 16.224 406.108 14.728 407.132 13.512C408.156 12.296 409.54 11.688 411.284 11.688ZM411.284 12.504C410.596 12.504 410.028 12.68 409.58 13.032C409.132 13.368 408.812 13.848 408.62 14.472C408.444 15.096 408.324 15.664 408.26 16.176C408.212 16.688 408.188 17.296 408.188 18C408.188 18.544 408.196 19.024 408.212 19.44C408.244 19.84 408.316 20.312 408.428 20.856C408.556 21.4 408.724 21.848 408.932 22.2C409.14 22.552 409.444 22.856 409.844 23.112C410.244 23.352 410.724 23.472 411.284 23.472C413.38 23.472 414.428 21.648 414.428 18C414.428 14.336 413.38 12.504 411.284 12.504ZM423.365 12.744V23.208H425.045V24H419.021V23.208H420.893V12.744H419.021V11.976H432.389V12.744H430.541V23.208H432.389V24H426.389V23.208H428.069V12.744H423.365ZM440.065 11.688C441.777 11.688 443.161 12.304 444.217 13.536C445.273 14.768 445.801 16.256 445.801 18C445.801 19.728 445.265 21.208 444.193 22.44C443.137 23.656 441.761 24.264 440.065 24.264C438.337 24.264 436.953 23.664 435.913 22.464C434.889 21.264 434.377 19.776 434.377 18C434.377 16.224 434.889 14.728 435.913 13.512C436.937 12.296 438.321 11.688 440.065 11.688ZM440.065 12.504C439.377 12.504 438.809 12.68 438.361 13.032C437.913 13.368 437.593 13.848 437.401 14.472C437.225 15.096 437.105 15.664 437.041 16.176C436.993 16.688 436.969 17.296 436.969 18C436.969 18.544 436.977 19.024 436.993 19.44C437.025 19.84 437.097 20.312 437.209 20.856C437.337 21.4 437.505 21.848 437.713 22.2C437.921 22.552 438.225 22.856 438.625 23.112C439.025 23.352 439.505 23.472 440.065 23.472C442.161 23.472 443.209 21.648 443.209 18C443.209 14.336 442.161 12.504 440.065 12.504ZM455.098 23.424C455.626 23.424 456.074 23.296 456.442 23.04C456.826 22.768 457.114 22.456 457.306 22.104C457.498 21.752 457.65 21.296 457.762 20.736C457.874 20.176 457.938 19.712 457.954 19.344C457.986 18.96 458.002 18.504 458.002 17.976C458.018 16.136 457.794 14.768 457.33 13.872C456.866 13.024 456.138 12.6 455.146 12.6C454.57 12.6 454.066 12.776 453.634 13.128C453.218 13.464 452.906 13.912 452.698 14.472C452.506 15.016 452.362 15.552 452.266 16.08C452.186 16.608 452.146 17.144 452.146 17.688V19.08C452.146 19.688 452.178 20.224 452.242 20.688C452.322 21.136 452.458 21.584 452.65 22.032C452.842 22.48 453.146 22.824 453.562 23.064C453.978 23.304 454.49 23.424 455.098 23.424ZM452.146 22.608V29.112H454.81V30H447.802V29.112H449.674V12.864H447.802V11.976C448.97 11.976 449.81 11.952 450.322 11.904C450.818 11.888 451.178 11.8 451.402 11.64L451.738 11.856V15.36C451.882 14.256 452.298 13.368 452.986 12.696C453.69 12.024 454.586 11.688 455.674 11.688C456.714 11.688 457.618 12.016 458.386 12.672C459.17 13.312 459.73 14.096 460.066 15.024C460.418 15.936 460.594 16.904 460.594 17.928C460.594 19.608 460.122 21.088 459.178 22.368C458.234 23.632 456.946 24.264 455.314 24.264C453.922 24.264 452.866 23.712 452.146 22.608ZM474.519 23.208H476.655V27.552H475.863V26.952C475.863 24.984 474.887 24 472.935 24H462.591V23.208H464.463V12.744H462.591V11.976H468.711V12.744H466.935V23.208H472.047V12.744H470.271V11.976H476.367V12.744H474.519V23.208ZM482.521 21.96V23.208H484.417V24H478.177V23.208H480.049V12.744H478.177V11.976H484.417V12.744H482.521V20.616L487.729 13.92V12.744H485.833V11.976H492.049V12.744H490.201V23.208H492.049V24H485.833V23.208H487.729V15.264L482.521 21.96ZM498.177 21.96V23.208H500.073V24H493.833V23.208H495.705V12.744H493.833V11.976H500.073V12.744H498.177V20.616L503.385 13.92V12.744H501.489V11.976H507.705V12.744H505.857V23.208H507.705V24H501.489V23.208H503.385V15.264L498.177 21.96Z" fill="white"/>
<path d="M986.904 764.208H993.696V749.232H989.088C989.072 750.72 989.048 751.952 989.016 752.928C988.984 753.904 988.904 755.184 988.776 756.768C988.664 758.336 988.448 759.752 988.128 761.016C987.808 762.264 987.4 763.328 986.904 764.208ZM984.984 768.552V769.32H984.216V764.208H985.704C986.568 762.944 987.176 761.176 987.528 758.904C987.848 756.696 988.024 753.472 988.056 749.232H986.112V748.44H998.232V749.232H996.264V764.208H998.616V769.32H997.824V768.552C997.824 767.208 997.576 766.28 997.08 765.768C996.6 765.256 995.688 765 994.344 765H988.488C987.16 765 986.24 765.256 985.728 765.768C985.232 766.28 984.984 767.208 984.984 768.552ZM1006.03 764.208H1008.02V753.744H1004.69C1004.69 755.744 1004.68 757.072 1004.66 757.728C1004.57 761.088 1004.24 763.24 1003.68 764.184C1003.21 764.904 1002.49 765.264 1001.49 765.264C1000.82 765.264 1000.29 765.056 999.886 764.64C999.486 764.224 999.286 763.68 999.286 763.008C999.286 762.528 999.422 762.128 999.694 761.808C999.982 761.472 1000.37 761.304 1000.85 761.304C1001.28 761.304 1001.63 761.424 1001.9 761.664C1002.17 761.904 1002.31 762.24 1002.31 762.672C1002.31 763.136 1002.16 763.488 1001.85 763.728C1001.55 763.952 1001.16 764.064 1000.68 764.064C1000.76 764.192 1000.88 764.28 1001.04 764.328C1001.18 764.392 1001.38 764.424 1001.64 764.424C1002.26 764.424 1002.73 764.064 1003.05 763.344C1003.36 762.624 1003.55 761.36 1003.63 759.552C1003.65 759.04 1003.67 758.384 1003.7 757.584V753.744H1001.69V752.976H1012.34V753.744H1010.49V764.208H1012.34V765H1006.03V764.208ZM1018.48 762.96V764.208H1020.38V765H1014.14V764.208H1016.01V753.744H1014.14V752.976H1020.38V753.744H1018.48V761.616L1023.69 754.92V753.744H1021.79V752.976H1028.01V753.744H1026.16V764.208H1028.01V765H1021.79V764.208H1023.69V756.264L1018.48 762.96ZM1034.14 759.12V764.208H1035.94V765H1029.79V764.208H1031.67V753.744H1029.79V752.976H1035.94V753.744H1034.14V758.352H1039.32V753.744H1037.52V752.976H1043.64V753.744H1041.79V764.208H1043.64V765H1037.52V764.208H1039.32V759.12H1034.14ZM1049.77 759.12V764.208H1051.57V765H1045.43V764.208H1047.3V753.744H1045.43V752.976H1051.57V753.744H1049.77V758.352H1054.96V753.744H1053.16V752.976H1059.28V753.744H1057.43V764.208H1059.28V765H1053.16V764.208H1054.96V759.12H1049.77ZM1067.64 753.744H1065.4V758.088H1067.04C1067.68 758.088 1068.27 758.136 1068.81 758.232C1069.37 758.328 1069.92 758.496 1070.47 758.736C1071.03 758.96 1071.47 759.312 1071.79 759.792C1072.11 760.256 1072.27 760.824 1072.27 761.496C1072.27 762.168 1072.11 762.744 1071.79 763.224C1071.47 763.704 1071.04 764.072 1070.49 764.328C1069.96 764.568 1069.41 764.744 1068.84 764.856C1068.28 764.952 1067.68 765 1067.04 765H1061.06V764.208H1062.93V753.744H1061.06V752.976H1067.64V753.744ZM1066.8 758.856H1065.4V764.208H1066.82C1068.74 764.208 1069.7 763.296 1069.7 761.472C1069.7 760.496 1069.47 759.816 1069 759.432C1068.54 759.048 1067.8 758.856 1066.8 758.856ZM1078.34 764.208V765H1072.22V764.208H1074.02V753.744H1072V752.976H1078.34V753.744H1076.49V764.208H1078.34ZM1086.02 765.264C1084.24 765.264 1082.85 764.664 1081.84 763.464C1080.85 762.248 1080.35 760.736 1080.35 758.928C1080.35 757.2 1080.83 755.728 1081.79 754.512C1082.77 753.296 1084.1 752.688 1085.78 752.688C1087.44 752.688 1088.68 753.216 1089.5 754.272C1090.31 755.328 1090.72 756.712 1090.72 758.424C1090.72 758.456 1090.71 758.512 1090.7 758.592C1090.7 758.672 1090.69 758.728 1090.67 758.76H1082.95V759.024C1082.95 759.728 1082.98 760.344 1083.04 760.872C1083.11 761.4 1083.24 761.96 1083.45 762.552C1083.66 763.144 1083.99 763.6 1084.46 763.92C1084.92 764.24 1085.51 764.4 1086.21 764.4C1087.19 764.4 1087.95 764.136 1088.51 763.608C1089.09 763.08 1089.53 762.32 1089.83 761.328L1090.58 761.496C1090.32 762.632 1089.79 763.544 1088.97 764.232C1088.17 764.92 1087.19 765.264 1086.02 765.264ZM1085.73 753.504C1085.17 753.504 1084.7 753.64 1084.31 753.912C1083.95 754.184 1083.67 754.576 1083.47 755.088C1083.3 755.584 1083.18 756.048 1083.11 756.48C1083.05 756.896 1083 757.392 1082.97 757.968H1088.2C1088.23 756.4 1088.04 755.264 1087.63 754.56C1087.21 753.856 1086.58 753.504 1085.73 753.504ZM1103.7 765H1098.58V764.208H1100.46V753.768H1098.58V752.976H1103.7C1104.38 752.976 1104.98 753 1105.47 753.048C1105.97 753.096 1106.53 753.208 1107.15 753.384C1107.79 753.56 1108.29 753.864 1108.64 754.296C1108.99 754.728 1109.17 755.272 1109.17 755.928C1109.17 756.76 1108.89 757.392 1108.33 757.824C1107.77 758.256 1107.05 758.528 1106.17 758.64C1108.68 758.864 1109.94 759.856 1109.94 761.616C1109.94 762.128 1109.84 762.584 1109.65 762.984C1109.46 763.368 1109.18 763.68 1108.81 763.92C1108.46 764.16 1108.09 764.36 1107.7 764.52C1107.32 764.664 1106.86 764.768 1106.34 764.832C1105.82 764.896 1105.38 764.944 1104.99 764.976C1104.61 764.992 1104.18 765 1103.7 765ZM1106.67 756.048C1106.67 755.168 1106.39 754.568 1105.83 754.248C1105.27 753.912 1104.52 753.744 1103.58 753.744H1102.93V758.376H1103.84C1104.83 758.376 1105.55 758.224 1106 757.92C1106.45 757.6 1106.67 756.976 1106.67 756.048ZM1103.82 759.12H1102.93V764.232H1103.82C1104.94 764.232 1105.81 764.056 1106.43 763.704C1107.06 763.336 1107.37 762.64 1107.37 761.616C1107.37 761.072 1107.28 760.624 1107.1 760.272C1106.93 759.92 1106.66 759.664 1106.29 759.504C1105.92 759.344 1105.55 759.24 1105.18 759.192C1104.83 759.144 1104.38 759.12 1103.82 759.12ZM1118.5 753.744H1116.26V758.088H1117.9C1118.54 758.088 1119.13 758.136 1119.67 758.232C1120.23 758.328 1120.78 758.496 1121.33 758.736C1121.89 758.96 1122.33 759.312 1122.65 759.792C1122.97 760.256 1123.13 760.824 1123.13 761.496C1123.13 762.168 1122.97 762.744 1122.65 763.224C1122.33 763.704 1121.9 764.072 1121.35 764.328C1120.82 764.568 1120.27 764.744 1119.7 764.856C1119.14 764.952 1118.54 765 1117.9 765H1111.92V764.208H1113.79V753.744H1111.92V752.976H1118.5V753.744ZM1117.66 758.856H1116.26V764.208H1117.68C1119.6 764.208 1120.56 763.296 1120.56 761.472C1120.56 760.496 1120.33 759.816 1119.86 759.432C1119.4 759.048 1118.66 758.856 1117.66 758.856ZM1129.2 764.208V765H1123.08V764.208H1124.88V753.744H1122.86V752.976H1129.2V753.744H1127.35V764.208H1129.2ZM1135.34 759.12V764.208H1137.14V765H1131V764.208H1132.87V753.744H1131V752.976H1137.14V753.744H1135.34V758.352H1140.53V753.744H1138.73V752.976H1144.85V753.744H1143V764.208H1144.85V765H1138.73V764.208H1140.53V759.12H1135.34ZM1152.53 752.688C1154.25 752.688 1155.63 753.304 1156.69 754.536C1157.74 755.768 1158.27 757.256 1158.27 759C1158.27 760.728 1157.73 762.208 1156.66 763.44C1155.61 764.656 1154.23 765.264 1152.53 765.264C1150.81 765.264 1149.42 764.664 1148.38 763.464C1147.36 762.264 1146.85 760.776 1146.85 759C1146.85 757.224 1147.36 755.728 1148.38 754.512C1149.41 753.296 1150.79 752.688 1152.53 752.688ZM1152.53 753.504C1151.85 753.504 1151.28 753.68 1150.83 754.032C1150.38 754.368 1150.06 754.848 1149.87 755.472C1149.69 756.096 1149.57 756.664 1149.51 757.176C1149.46 757.688 1149.44 758.296 1149.44 759C1149.44 759.544 1149.45 760.024 1149.46 760.44C1149.49 760.84 1149.57 761.312 1149.68 761.856C1149.81 762.4 1149.97 762.848 1150.18 763.2C1150.39 763.552 1150.69 763.856 1151.09 764.112C1151.49 764.352 1151.97 764.472 1152.53 764.472C1154.63 764.472 1155.68 762.648 1155.68 759C1155.68 755.336 1154.63 753.504 1152.53 753.504ZM1169.61 761.328L1170.37 761.496C1170.12 762.68 1169.61 763.608 1168.86 764.28C1168.13 764.936 1167.17 765.264 1165.98 765.264C1164.22 765.264 1162.87 764.68 1161.93 763.512C1160.98 762.344 1160.51 760.856 1160.51 759.048C1160.51 757.208 1161.01 755.688 1162 754.488C1162.99 753.288 1164.39 752.688 1166.2 752.688C1167.35 752.688 1168.3 753 1169.05 753.624C1169.82 754.232 1170.21 755.104 1170.21 756.24C1170.21 756.72 1170.07 757.112 1169.8 757.416C1169.53 757.72 1169.16 757.872 1168.69 757.872C1168.2 757.872 1167.81 757.736 1167.52 757.464C1167.23 757.192 1167.09 756.816 1167.09 756.336C1167.09 755.856 1167.24 755.48 1167.54 755.208C1167.86 754.92 1168.27 754.744 1168.77 754.68C1168.38 753.88 1167.57 753.48 1166.32 753.48C1165.84 753.48 1165.41 753.56 1165.05 753.72C1164.68 753.88 1164.38 754.12 1164.16 754.44C1163.93 754.744 1163.74 755.072 1163.58 755.424C1163.44 755.76 1163.33 756.16 1163.27 756.624C1163.21 757.072 1163.16 757.48 1163.13 757.848C1163.11 758.2 1163.1 758.6 1163.1 759.048C1163.1 759.656 1163.14 760.232 1163.22 760.776C1163.3 761.304 1163.44 761.864 1163.63 762.456C1163.82 763.048 1164.13 763.52 1164.57 763.872C1165.01 764.224 1165.55 764.4 1166.17 764.4C1167.13 764.4 1167.88 764.136 1168.41 763.608C1168.95 763.08 1169.35 762.32 1169.61 761.328ZM1176.38 759.12V764.208H1178.18V765H1172.04V764.208H1173.91V753.744H1172.04V752.976H1178.18V753.744H1176.38V758.352H1181.56V753.744H1179.76V752.976H1185.88V753.744H1184.04V764.208H1185.88V765H1179.76V764.208H1181.56V759.12H1176.38ZM1194.25 753.744H1192.01V758.088H1193.65C1194.29 758.088 1194.88 758.136 1195.42 758.232C1195.98 758.328 1196.53 758.496 1197.08 758.736C1197.64 758.96 1198.08 759.312 1198.4 759.792C1198.72 760.256 1198.88 760.824 1198.88 761.496C1198.88 762.168 1198.72 762.744 1198.4 763.224C1198.08 763.704 1197.65 764.072 1197.1 764.328C1196.57 764.568 1196.02 764.744 1195.45 764.856C1194.89 764.952 1194.29 765 1193.65 765H1187.67V764.208H1189.54V753.744H1187.67V752.976H1194.25V753.744ZM1193.41 758.856H1192.01V764.208H1193.43C1195.35 764.208 1196.31 763.296 1196.31 761.472C1196.31 760.496 1196.08 759.816 1195.61 759.432C1195.15 759.048 1194.41 758.856 1193.41 758.856ZM1204.95 764.208V765H1198.83V764.208H1200.63V753.744H1198.61V752.976H1204.95V753.744H1203.1V764.208H1204.95ZM1212.63 765.264C1210.85 765.264 1209.46 764.664 1208.45 763.464C1207.46 762.248 1206.96 760.736 1206.96 758.928C1206.96 757.2 1207.44 755.728 1208.4 754.512C1209.38 753.296 1210.71 752.688 1212.39 752.688C1214.05 752.688 1215.29 753.216 1216.11 754.272C1216.92 755.328 1217.33 756.712 1217.33 758.424C1217.33 758.456 1217.32 758.512 1217.31 758.592C1217.31 758.672 1217.3 758.728 1217.28 758.76H1209.56V759.024C1209.56 759.728 1209.59 760.344 1209.65 760.872C1209.72 761.4 1209.85 761.96 1210.06 762.552C1210.27 763.144 1210.6 763.6 1211.07 763.92C1211.53 764.24 1212.12 764.4 1212.82 764.4C1213.8 764.4 1214.56 764.136 1215.12 763.608C1215.7 763.08 1216.14 762.32 1216.44 761.328L1217.19 761.496C1216.93 762.632 1216.4 763.544 1215.58 764.232C1214.78 764.92 1213.8 765.264 1212.63 765.264ZM1212.34 753.504C1211.78 753.504 1211.31 753.64 1210.92 753.912C1210.56 754.184 1210.28 754.576 1210.08 755.088C1209.91 755.584 1209.79 756.048 1209.72 756.48C1209.66 756.896 1209.61 757.392 1209.58 757.968H1214.81C1214.84 756.4 1214.65 755.264 1214.24 754.56C1213.82 753.856 1213.19 753.504 1212.34 753.504ZM1235.3 758.688C1235.3 760.544 1234.78 762.104 1233.76 763.368C1232.74 764.632 1231.31 765.264 1229.49 765.264C1228.35 765.264 1227.36 765.008 1226.51 764.496C1225.66 763.968 1225.24 763.176 1225.24 762.12C1225.24 761.624 1225.38 761.232 1225.65 760.944C1225.94 760.64 1226.32 760.488 1226.8 760.488C1227.28 760.488 1227.66 760.624 1227.93 760.896C1228.2 761.168 1228.34 761.544 1228.34 762.024C1228.34 762.92 1227.83 763.44 1226.82 763.584C1227.29 764.192 1228.1 764.496 1229.25 764.496C1229.82 764.496 1230.32 764.384 1230.74 764.16C1231.17 763.92 1231.5 763.632 1231.74 763.296C1231.98 762.96 1232.18 762.536 1232.32 762.024C1232.48 761.496 1232.58 761.016 1232.63 760.584C1232.68 760.152 1232.71 759.656 1232.73 759.096H1228.24V758.304H1232.73C1232.7 755.184 1231.64 753.624 1229.56 753.624C1227.91 753.624 1226.9 754.768 1226.51 757.056H1225.77V752.856H1226.46L1227.06 753.672C1227.77 753.016 1228.69 752.688 1229.82 752.688C1231.46 752.688 1232.78 753.28 1233.78 754.464C1234.79 755.632 1235.3 757.04 1235.3 758.688ZM1243.38 764.208H1245.37V753.744H1242.04C1242.04 755.744 1242.03 757.072 1242.01 757.728C1241.92 761.088 1241.59 763.24 1241.03 764.184C1240.57 764.904 1239.84 765.264 1238.85 765.264C1238.17 765.264 1237.64 765.056 1237.24 764.64C1236.84 764.224 1236.64 763.68 1236.64 763.008C1236.64 762.528 1236.77 762.128 1237.05 761.808C1237.33 761.472 1237.72 761.304 1238.2 761.304C1238.63 761.304 1238.98 761.424 1239.25 761.664C1239.53 761.904 1239.66 762.24 1239.66 762.672C1239.66 763.136 1239.51 763.488 1239.21 763.728C1238.9 763.952 1238.51 764.064 1238.03 764.064C1238.11 764.192 1238.23 764.28 1238.39 764.328C1238.53 764.392 1238.73 764.424 1238.99 764.424C1239.61 764.424 1240.09 764.064 1240.41 763.344C1240.71 762.624 1240.9 761.36 1240.98 759.552C1241 759.04 1241.02 758.384 1241.05 757.584V753.744H1239.04V752.976H1249.69V753.744H1247.85V764.208H1249.69V765H1243.38V764.208ZM1257.37 765.264C1255.59 765.264 1254.2 764.664 1253.19 763.464C1252.2 762.248 1251.71 760.736 1251.71 758.928C1251.71 757.2 1252.19 755.728 1253.15 754.512C1254.12 753.296 1255.45 752.688 1257.13 752.688C1258.79 752.688 1260.03 753.216 1260.85 754.272C1261.67 755.328 1262.07 756.712 1262.07 758.424C1262.07 758.456 1262.07 758.512 1262.05 758.592C1262.05 758.672 1262.04 758.728 1262.03 758.76H1254.3V759.024C1254.3 759.728 1254.33 760.344 1254.39 760.872C1254.46 761.4 1254.59 761.96 1254.8 762.552C1255.01 763.144 1255.35 763.6 1255.81 763.92C1256.27 764.24 1256.86 764.4 1257.56 764.4C1258.54 764.4 1259.31 764.136 1259.87 763.608C1260.44 763.08 1260.88 762.32 1261.19 761.328L1261.93 761.496C1261.67 762.632 1261.14 763.544 1260.32 764.232C1259.52 764.92 1258.54 765.264 1257.37 765.264ZM1257.08 753.504C1256.52 753.504 1256.05 753.64 1255.67 753.912C1255.3 754.184 1255.02 754.576 1254.83 755.088C1254.65 755.584 1254.53 756.048 1254.47 756.48C1254.4 756.896 1254.35 757.392 1254.32 757.968H1259.55C1259.59 756.4 1259.39 755.264 1258.98 754.56C1258.56 753.856 1257.93 753.504 1257.08 753.504ZM1266.81 754.248V764.208H1268.83V765H1263.93V764.208H1265.81V753.744H1263.93V752.976H1268.81L1272.33 760.416L1275.91 752.976H1280.64V753.744H1278.77V764.208H1280.64V765H1274.35V764.208H1276.29V754.272L1271.81 763.752H1271.16L1266.81 754.248ZM1288.28 765.264C1286.51 765.264 1285.12 764.664 1284.11 763.464C1283.12 762.248 1282.62 760.736 1282.62 758.928C1282.62 757.2 1283.1 755.728 1284.06 754.512C1285.04 753.296 1286.36 752.688 1288.04 752.688C1289.71 752.688 1290.95 753.216 1291.76 754.272C1292.58 755.328 1292.99 756.712 1292.99 758.424C1292.99 758.456 1292.98 758.512 1292.96 758.592C1292.96 758.672 1292.96 758.728 1292.94 758.76H1285.21V759.024C1285.21 759.728 1285.24 760.344 1285.31 760.872C1285.37 761.4 1285.51 761.96 1285.72 762.552C1285.92 763.144 1286.26 763.6 1286.72 763.92C1287.19 764.24 1287.77 764.4 1288.48 764.4C1289.45 764.4 1290.22 764.136 1290.78 763.608C1291.36 763.08 1291.8 762.32 1292.1 761.328L1292.84 761.496C1292.59 762.632 1292.05 763.544 1291.24 764.232C1290.44 764.92 1289.45 765.264 1288.28 765.264ZM1288 753.504C1287.44 753.504 1286.96 753.64 1286.58 753.912C1286.21 754.184 1285.93 754.576 1285.74 755.088C1285.56 755.584 1285.44 756.048 1285.38 756.48C1285.32 756.896 1285.27 757.392 1285.24 757.968H1290.47C1290.5 756.4 1290.31 755.264 1289.89 754.56C1289.48 753.856 1288.84 753.504 1288 753.504ZM1299.19 759.12V764.208H1300.99V765H1294.85V764.208H1296.72V753.744H1294.85V752.976H1300.99V753.744H1299.19V758.352H1304.38V753.744H1302.58V752.976H1308.7V753.744H1306.85V764.208H1308.7V765H1302.58V764.208H1304.38V759.12H1299.19ZM1316.89 764.208H1318.98V765H1312.33V764.208H1314.42V753.744H1313.41C1312.48 753.744 1311.83 754 1311.44 754.512C1311.06 755.008 1310.87 755.744 1310.87 756.72V757.32H1310.07V752.976H1321.23V757.32H1320.47V756.72C1320.47 755.744 1320.27 755.008 1319.87 754.512C1319.48 754.016 1318.83 753.76 1317.9 753.744H1316.89V764.208ZM1329.17 753.744H1326.94V758.088H1328.57C1329.21 758.088 1329.81 758.136 1330.35 758.232C1330.91 758.328 1331.46 758.496 1332.01 758.736C1332.57 758.96 1333.01 759.312 1333.33 759.792C1333.65 760.256 1333.81 760.824 1333.81 761.496C1333.81 762.168 1333.65 762.744 1333.33 763.224C1333.01 763.704 1332.57 764.072 1332.03 764.328C1331.5 764.568 1330.95 764.744 1330.37 764.856C1329.81 764.952 1329.21 765 1328.57 765H1322.6V764.208H1324.47V753.744H1322.6V752.976H1329.17V753.744ZM1328.33 758.856H1326.94V764.208H1328.36C1330.28 764.208 1331.24 763.296 1331.24 761.472C1331.24 760.496 1331.01 759.816 1330.54 759.432C1330.08 759.048 1329.34 758.856 1328.33 758.856ZM1339.88 764.208V765H1333.76V764.208H1335.56V753.744H1333.54V752.976H1339.88V753.744H1338.03V764.208H1339.88Z" fill="white"/>
<path d="M1120.26 237.16L1117.98 243.904H1122.54L1120.26 237.16ZM1118.97 249.208V250H1113.71V249.208H1115.25L1120.74 233.2H1121.61L1127.06 249.208H1128.71V250H1121.49V249.208H1124.34L1122.81 244.696H1117.72L1116.18 249.208H1118.97ZM1140.05 250.264C1139.21 250.264 1138.56 250.016 1138.11 249.52C1137.68 249.008 1137.35 248.296 1137.13 247.384C1137 246.888 1136.88 246.488 1136.77 246.184C1136.65 245.88 1136.49 245.56 1136.29 245.224C1136.08 244.888 1135.81 244.64 1135.47 244.48C1135.15 244.32 1134.76 244.24 1134.29 244.24H1133.62V249.208H1135.73V250H1129.28V249.208H1131.15V238.744H1129.28V237.976H1135.3V238.744H1133.62V243.448H1134.49C1134.89 243.448 1135.21 243.296 1135.47 242.992C1135.71 242.72 1135.99 242.064 1136.31 241.024C1136.47 240.512 1136.61 240.096 1136.74 239.776C1136.87 239.456 1137.05 239.12 1137.29 238.768C1137.53 238.4 1137.83 238.128 1138.18 237.952C1138.53 237.776 1138.95 237.688 1139.43 237.688C1140.07 237.688 1140.58 237.88 1140.97 238.264C1141.37 238.632 1141.57 239.128 1141.57 239.752C1141.57 240.232 1141.44 240.624 1141.18 240.928C1140.94 241.232 1140.59 241.384 1140.13 241.384C1139.68 241.384 1139.3 241.256 1139 241C1138.71 240.728 1138.57 240.368 1138.57 239.92C1138.57 239.568 1138.68 239.272 1138.9 239.032C1139.13 238.776 1139.41 238.608 1139.77 238.528L1139.55 238.456C1139.5 238.44 1139.41 238.432 1139.26 238.432C1138.83 238.432 1138.47 238.592 1138.18 238.912C1137.89 239.216 1137.57 239.928 1137.2 241.048C1136.89 241.944 1136.63 242.576 1136.41 242.944C1136.2 243.296 1135.94 243.56 1135.64 243.736C1137.49 244.312 1138.7 244.992 1139.26 245.776C1139.45 246.064 1139.65 246.584 1139.86 247.336C1139.86 247.352 1139.87 247.416 1139.89 247.528C1139.92 247.64 1139.95 247.744 1139.98 247.84C1140.08 248.224 1140.13 248.424 1140.15 248.44C1140.29 248.904 1140.55 249.136 1140.92 249.136C1141.22 249.136 1141.45 248.912 1141.59 248.464C1141.72 247.984 1141.78 247.28 1141.78 246.352H1142.5C1142.5 246.896 1142.48 247.36 1142.43 247.744C1142.38 248.128 1142.29 248.536 1142.14 248.968C1142 249.384 1141.75 249.704 1141.4 249.928C1141.05 250.152 1140.6 250.264 1140.05 250.264ZM1150.19 249.208H1152.28V250H1145.63V249.208H1147.72V238.744H1146.71C1145.79 238.744 1145.13 239 1144.75 239.512C1144.36 240.008 1144.17 240.744 1144.17 241.72V242.32H1143.38V237.976H1154.54V242.32H1153.77V241.72C1153.77 240.744 1153.57 240.008 1153.17 239.512C1152.79 239.016 1152.13 238.76 1151.2 238.744H1150.19V249.208ZM1160.25 247.96V249.208H1162.14V250H1155.9V249.208H1157.78V238.744H1155.9V237.976H1162.14V238.744H1160.25V246.616L1165.46 239.92V238.744H1163.56V237.976H1169.78V238.744H1167.93V249.208H1169.78V250H1163.56V249.208H1165.46V241.264L1160.25 247.96ZM1176.67 250H1171.56V249.208H1173.43V238.768H1171.56V237.976H1176.67C1177.36 237.976 1177.95 238 1178.45 238.048C1178.94 238.096 1179.5 238.208 1180.13 238.384C1180.77 238.56 1181.26 238.864 1181.62 239.296C1181.97 239.728 1182.14 240.272 1182.14 240.928C1182.14 241.76 1181.86 242.392 1181.3 242.824C1180.74 243.256 1180.02 243.528 1179.14 243.64C1181.66 243.864 1182.91 244.856 1182.91 246.616C1182.91 247.128 1182.82 247.584 1182.62 247.984C1182.43 248.368 1182.15 248.68 1181.78 248.92C1181.43 249.16 1181.06 249.36 1180.68 249.52C1180.3 249.664 1179.84 249.768 1179.31 249.832C1178.8 249.896 1178.35 249.944 1177.97 249.976C1177.58 249.992 1177.15 250 1176.67 250ZM1179.65 241.048C1179.65 240.168 1179.37 239.568 1178.81 239.248C1178.25 238.912 1177.5 238.744 1176.55 238.744H1175.9V243.376H1176.82C1177.81 243.376 1178.53 243.224 1178.98 242.92C1179.42 242.6 1179.65 241.976 1179.65 241.048ZM1176.79 244.12H1175.9V249.232H1176.79C1177.91 249.232 1178.78 249.056 1179.41 248.704C1180.03 248.336 1180.34 247.64 1180.34 246.616C1180.34 246.072 1180.26 245.624 1180.08 245.272C1179.9 244.92 1179.63 244.664 1179.26 244.504C1178.9 244.344 1178.53 244.24 1178.16 244.192C1177.81 244.144 1177.35 244.12 1176.79 244.12ZM1189.24 244.12V249.208H1191.04V250H1184.9V249.208H1186.77V238.744H1184.9V237.976H1191.04V238.744H1189.24V243.352H1194.42V238.744H1192.62V237.976H1198.74V238.744H1196.9V249.208H1198.74V250H1192.62V249.208H1194.42V244.12H1189.24ZM1210.22 250.264C1208.64 250.264 1207.81 249.328 1207.73 247.456C1207.47 248.32 1206.99 249.008 1206.29 249.52C1205.6 250.016 1204.8 250.264 1203.89 250.264C1202.91 250.264 1202.12 250.04 1201.51 249.592C1200.92 249.128 1200.62 248.432 1200.62 247.504C1200.62 247.024 1200.75 246.584 1201.01 246.184C1201.26 245.768 1201.54 245.44 1201.85 245.2C1202.17 244.96 1202.61 244.728 1203.17 244.504C1203.74 244.264 1204.18 244.096 1204.49 244C1204.81 243.904 1205.25 243.784 1205.81 243.64L1207.54 243.184V241.504C1207.54 239.584 1206.7 238.624 1205.02 238.624C1204.12 238.624 1203.36 238.904 1202.74 239.464C1203.58 239.72 1204.01 240.248 1204.01 241.048C1204.01 241.528 1203.86 241.904 1203.58 242.176C1203.3 242.448 1202.93 242.584 1202.45 242.584C1201.98 242.584 1201.61 242.448 1201.32 242.176C1201.05 241.888 1200.91 241.512 1200.91 241.048C1200.91 240.328 1201.18 239.704 1201.73 239.176C1202.27 238.632 1202.9 238.248 1203.6 238.024C1204.32 237.8 1205.02 237.688 1205.71 237.688C1208.58 237.688 1210.01 238.88 1210.01 241.264V247.96C1210.01 248.36 1210.08 248.664 1210.22 248.872C1210.34 249.08 1210.54 249.184 1210.82 249.184C1211.62 249.184 1212.02 248.24 1212.02 246.352H1212.74C1212.74 246.896 1212.72 247.368 1212.67 247.768C1212.62 248.152 1212.52 248.552 1212.36 248.968C1212.2 249.384 1211.94 249.704 1211.57 249.928C1211.22 250.152 1210.77 250.264 1210.22 250.264ZM1203.19 247.12C1203.19 247.68 1203.34 248.12 1203.62 248.44C1203.91 248.76 1204.33 248.92 1204.87 248.92C1205.54 248.92 1206.09 248.696 1206.5 248.248C1206.94 247.784 1207.22 247.28 1207.34 246.736C1207.47 246.176 1207.54 245.56 1207.54 244.888V243.904L1206.07 244.336C1205.19 244.576 1204.49 244.912 1203.96 245.344C1203.45 245.76 1203.19 246.352 1203.19 247.12ZM1220.47 243.568H1221.69V238.744H1220.54C1219.67 238.744 1218.95 238.952 1218.35 239.368C1217.78 239.784 1217.49 240.4 1217.49 241.216C1217.49 242.016 1217.78 242.608 1218.35 242.992C1218.93 243.376 1219.63 243.568 1220.47 243.568ZM1219.03 245.464C1218.93 245.592 1218.83 245.8 1218.71 246.088C1218.68 246.184 1218.51 246.736 1218.19 247.744C1217.93 248.576 1217.61 249.208 1217.23 249.64C1216.86 250.056 1216.3 250.264 1215.55 250.264C1215.11 250.264 1214.75 250.176 1214.44 250C1214.15 249.84 1213.93 249.648 1213.77 249.424C1213.61 249.184 1213.49 248.864 1213.41 248.464C1213.33 248.064 1213.28 247.728 1213.27 247.456C1213.25 247.168 1213.24 246.8 1213.24 246.352H1213.96C1213.96 248.208 1214.25 249.136 1214.83 249.136C1215 249.136 1215.14 249.056 1215.23 248.896C1215.33 248.752 1215.52 248.208 1215.81 247.264C1216.08 246.432 1216.39 245.856 1216.72 245.536C1217.07 245.184 1217.89 244.712 1219.17 244.12C1218.5 244.104 1217.86 244.016 1217.25 243.856C1216.66 243.68 1216.12 243.36 1215.64 242.896C1215.16 242.432 1214.92 241.856 1214.92 241.168C1214.92 240.544 1215.1 240.008 1215.45 239.56C1215.8 239.112 1216.27 238.784 1216.84 238.576C1217.43 238.352 1218 238.2 1218.55 238.12C1219.11 238.024 1219.68 237.976 1220.27 237.976H1226.01V238.744H1224.16V249.208H1226.01V250H1219.67V249.208H1221.69V244.264H1220.97C1220.09 244.264 1219.44 244.664 1219.03 245.464ZM1236.67 239.248V249.208H1238.68V250H1233.79V249.208H1235.66V238.744H1233.79V237.976H1238.66L1242.19 245.416L1245.76 237.976H1250.49V238.744H1248.62V249.208H1250.49V250H1244.2V249.208H1246.15V239.272L1241.66 248.752H1241.01L1236.67 239.248ZM1258.16 237.688C1259.87 237.688 1261.26 238.304 1262.31 239.536C1263.37 240.768 1263.9 242.256 1263.9 244C1263.9 245.728 1263.36 247.208 1262.29 248.44C1261.23 249.656 1259.86 250.264 1258.16 250.264C1256.43 250.264 1255.05 249.664 1254.01 248.464C1252.98 247.264 1252.47 245.776 1252.47 244C1252.47 242.224 1252.98 240.728 1254.01 239.512C1255.03 238.296 1256.42 237.688 1258.16 237.688ZM1258.16 238.504C1257.47 238.504 1256.9 238.68 1256.46 239.032C1256.01 239.368 1255.69 239.848 1255.5 240.472C1255.32 241.096 1255.2 241.664 1255.14 242.176C1255.09 242.688 1255.06 243.296 1255.06 244C1255.06 244.544 1255.07 245.024 1255.09 245.44C1255.12 245.84 1255.19 246.312 1255.3 246.856C1255.43 247.4 1255.6 247.848 1255.81 248.2C1256.02 248.552 1256.32 248.856 1256.72 249.112C1257.12 249.352 1257.6 249.472 1258.16 249.472C1260.26 249.472 1261.3 247.648 1261.3 244C1261.3 240.336 1260.26 238.504 1258.16 238.504ZM1267.61 249.208H1273.29V238.744H1269.48C1269.48 244.216 1268.85 247.704 1267.61 249.208ZM1277.83 238.744H1275.77V249.208H1277.9V253.552H1277.11V252.952C1277.11 250.984 1276.14 250 1274.21 250H1268.66C1266.73 250 1265.76 250.984 1265.76 252.952V253.552H1264.99V249.208H1266.33C1267.34 248.424 1268.01 246.232 1268.33 242.632C1268.37 242.152 1268.44 240.856 1268.52 238.744H1266.65V237.976H1277.83V238.744ZM1281.46 256.24C1280.71 256.24 1280.11 255.992 1279.66 255.496C1279.21 255.016 1278.99 254.392 1278.99 253.624C1278.99 253.096 1279.12 252.664 1279.4 252.328C1279.68 252.008 1280.08 251.848 1280.6 251.848C1281.06 251.848 1281.41 251.976 1281.65 252.232C1281.91 252.504 1282.04 252.872 1282.04 253.336C1282.04 254.28 1281.46 254.784 1280.31 254.848C1280.56 255.216 1280.95 255.4 1281.46 255.4C1282.04 255.4 1282.52 255.104 1282.92 254.512C1283.36 253.888 1283.89 252.656 1284.53 250.816L1284.8 250.072L1280.14 238.744H1278.36V237.976H1284.72V238.744H1282.59L1285.88 246.856L1288.88 238.744H1287.03V237.976H1291.49V238.744H1289.93L1285.71 250.36C1284.8 252.904 1284.07 254.512 1283.52 255.184C1282.96 255.888 1282.28 256.24 1281.46 256.24ZM1297.82 249.208H1299.81V238.744H1296.48C1296.48 240.744 1296.47 242.072 1296.45 242.728C1296.36 246.088 1296.03 248.24 1295.47 249.184C1295 249.904 1294.28 250.264 1293.28 250.264C1292.61 250.264 1292.08 250.056 1291.68 249.64C1291.28 249.224 1291.08 248.68 1291.08 248.008C1291.08 247.528 1291.21 247.128 1291.48 246.808C1291.77 246.472 1292.16 246.304 1292.64 246.304C1293.07 246.304 1293.42 246.424 1293.69 246.664C1293.96 246.904 1294.1 247.24 1294.1 247.672C1294.1 248.136 1293.95 248.488 1293.64 248.728C1293.34 248.952 1292.95 249.064 1292.47 249.064C1292.55 249.192 1292.67 249.28 1292.83 249.328C1292.97 249.392 1293.17 249.424 1293.43 249.424C1294.05 249.424 1294.52 249.064 1294.84 248.344C1295.15 247.624 1295.34 246.36 1295.42 244.552C1295.44 244.04 1295.46 243.384 1295.49 242.584V238.744H1293.48V237.976H1304.13V238.744H1302.28V249.208H1304.13V250H1297.82V249.208ZM1312.58 243.568H1313.8V238.744H1312.65C1311.78 238.744 1311.06 238.952 1310.46 239.368C1309.89 239.784 1309.6 240.4 1309.6 241.216C1309.6 242.016 1309.89 242.608 1310.46 242.992C1311.04 243.376 1311.74 243.568 1312.58 243.568ZM1311.14 245.464C1311.04 245.592 1310.94 245.8 1310.82 246.088C1310.79 246.184 1310.62 246.736 1310.3 247.744C1310.04 248.576 1309.72 249.208 1309.34 249.64C1308.97 250.056 1308.41 250.264 1307.66 250.264C1307.22 250.264 1306.86 250.176 1306.55 250C1306.26 249.84 1306.04 249.648 1305.88 249.424C1305.72 249.184 1305.6 248.864 1305.52 248.464C1305.44 248.064 1305.39 247.728 1305.38 247.456C1305.36 247.168 1305.35 246.8 1305.35 246.352H1306.07C1306.07 248.208 1306.36 249.136 1306.94 249.136C1307.11 249.136 1307.25 249.056 1307.34 248.896C1307.44 248.752 1307.63 248.208 1307.92 247.264C1308.19 246.432 1308.5 245.856 1308.83 245.536C1309.18 245.184 1310 244.712 1311.28 244.12C1310.61 244.104 1309.97 244.016 1309.36 243.856C1308.77 243.68 1308.23 243.36 1307.75 242.896C1307.27 242.432 1307.03 241.856 1307.03 241.168C1307.03 240.544 1307.21 240.008 1307.56 239.56C1307.91 239.112 1308.38 238.784 1308.95 238.576C1309.54 238.352 1310.11 238.2 1310.66 238.12C1311.22 238.024 1311.79 237.976 1312.38 237.976H1318.12V238.744H1316.27V249.208H1318.12V250H1311.78V249.208H1313.8V244.264H1313.08C1312.2 244.264 1311.55 244.664 1311.14 245.464ZM1331.82 249.208H1333.96V253.552H1333.17V252.952C1333.17 250.984 1332.19 250 1330.24 250H1319.9V249.208H1321.77V238.744H1319.9V237.976H1326.02V238.744H1324.24V249.208H1329.35V238.744H1327.58V237.976H1333.67V238.744H1331.82V249.208ZM1339.83 247.96V249.208H1341.72V250H1335.48V249.208H1337.35V238.744H1335.48V237.976H1341.72V238.744H1339.83V246.616L1345.03 239.92V238.744H1343.14V237.976H1349.35V238.744H1347.51V249.208H1349.35V250H1343.14V249.208H1345.03V241.264L1339.83 247.96ZM1357.79 243.568H1359.01V238.744H1357.86C1356.99 238.744 1356.27 238.952 1355.67 239.368C1355.1 239.784 1354.81 240.4 1354.81 241.216C1354.81 242.016 1355.1 242.608 1355.67 242.992C1356.25 243.376 1356.95 243.568 1357.79 243.568ZM1356.35 245.464C1356.25 245.592 1356.15 245.8 1356.03 246.088C1356 246.184 1355.83 246.736 1355.51 247.744C1355.25 248.576 1354.93 249.208 1354.55 249.64C1354.18 250.056 1353.62 250.264 1352.87 250.264C1352.43 250.264 1352.07 250.176 1351.76 250C1351.47 249.84 1351.25 249.648 1351.09 249.424C1350.93 249.184 1350.81 248.864 1350.73 248.464C1350.65 248.064 1350.6 247.728 1350.59 247.456C1350.57 247.168 1350.56 246.8 1350.56 246.352H1351.28C1351.28 248.208 1351.57 249.136 1352.15 249.136C1352.32 249.136 1352.46 249.056 1352.55 248.896C1352.65 248.752 1352.84 248.208 1353.13 247.264C1353.4 246.432 1353.71 245.856 1354.04 245.536C1354.39 245.184 1355.21 244.712 1356.49 244.12C1355.82 244.104 1355.18 244.016 1354.57 243.856C1353.98 243.68 1353.44 243.36 1352.96 242.896C1352.48 242.432 1352.24 241.856 1352.24 241.168C1352.24 240.544 1352.42 240.008 1352.77 239.56C1353.12 239.112 1353.59 238.784 1354.16 238.576C1354.75 238.352 1355.32 238.2 1355.87 238.12C1356.43 238.024 1357 237.976 1357.59 237.976H1363.33V238.744H1361.48V249.208H1363.33V250H1356.99V249.208H1359.01V244.264H1358.29C1357.41 244.264 1356.76 244.664 1356.35 245.464ZM1390.26 249.208V250H1371.11V249.208H1372.98V238.744H1371.11V237.976H1376.7V238.744H1375.45V249.208H1379.46V238.744H1377.99V237.976H1383.37V238.744H1381.93V249.208H1385.94V238.744H1384.69V237.976H1390.26V238.744H1388.41V249.208H1390.26ZM1398.47 249.208H1400.56V250H1393.91V249.208H1396V238.744H1394.99C1394.06 238.744 1393.4 239 1393.02 239.512C1392.64 240.008 1392.44 240.744 1392.44 241.72V242.32H1391.65V237.976H1402.81V242.32H1402.04V241.72C1402.04 240.744 1401.84 240.008 1401.44 239.512C1401.06 239.016 1400.4 238.76 1399.48 238.744H1398.47V249.208ZM1411.47 249.424C1412 249.424 1412.45 249.296 1412.82 249.04C1413.2 248.768 1413.49 248.456 1413.68 248.104C1413.87 247.752 1414.03 247.296 1414.14 246.736C1414.25 246.176 1414.31 245.712 1414.33 245.344C1414.36 244.96 1414.38 244.504 1414.38 243.976C1414.39 242.136 1414.17 240.768 1413.71 239.872C1413.24 239.024 1412.51 238.6 1411.52 238.6C1410.95 238.6 1410.44 238.776 1410.01 239.128C1409.59 239.464 1409.28 239.912 1409.07 240.472C1408.88 241.016 1408.74 241.552 1408.64 242.08C1408.56 242.608 1408.52 243.144 1408.52 243.688V245.08C1408.52 245.688 1408.55 246.224 1408.62 246.688C1408.7 247.136 1408.83 247.584 1409.03 248.032C1409.22 248.48 1409.52 248.824 1409.94 249.064C1410.35 249.304 1410.87 249.424 1411.47 249.424ZM1408.52 248.608V255.112H1411.19V256H1404.18V255.112H1406.05V238.864H1404.18V237.976C1405.35 237.976 1406.19 237.952 1406.7 237.904C1407.19 237.888 1407.55 237.8 1407.78 237.64L1408.11 237.856V241.36C1408.26 240.256 1408.67 239.368 1409.36 238.696C1410.07 238.024 1410.96 237.688 1412.05 237.688C1413.09 237.688 1413.99 238.016 1414.76 238.672C1415.55 239.312 1416.11 240.096 1416.44 241.024C1416.79 241.936 1416.97 242.904 1416.97 243.928C1416.97 245.608 1416.5 247.088 1415.55 248.368C1414.61 249.632 1413.32 250.264 1411.69 250.264C1410.3 250.264 1409.24 249.712 1408.52 248.608ZM1423.31 247.96V249.208H1425.21V250H1418.97V249.208H1420.84V238.744H1418.97V237.976H1425.21V238.744H1423.31V246.616L1428.52 239.92V238.744H1426.62V237.976H1432.84V238.744H1430.99V249.208H1432.84V250H1426.62V249.208H1428.52V241.264L1423.31 247.96ZM1438.46 249.208V250H1433.64V249.208H1435.39L1438.99 244.144L1435.29 238.744H1433.88V237.976H1439.52V238.744H1437.86L1440.57 242.656L1443.29 238.744H1441.61V237.976H1446.05V238.744H1444.41L1441.13 243.424L1445.13 249.208H1446.43V250H1440.62V249.208H1442.49L1439.59 245.008L1436.64 249.208H1438.46ZM1453.25 237.688C1454.96 237.688 1456.35 238.304 1457.4 239.536C1458.46 240.768 1458.99 242.256 1458.99 244C1458.99 245.728 1458.45 247.208 1457.38 248.44C1456.32 249.656 1454.95 250.264 1453.25 250.264C1451.52 250.264 1450.14 249.664 1449.1 248.464C1448.08 247.264 1447.56 245.776 1447.56 244C1447.56 242.224 1448.08 240.728 1449.1 239.512C1450.12 238.296 1451.51 237.688 1453.25 237.688ZM1453.25 238.504C1452.56 238.504 1452 238.68 1451.55 239.032C1451.1 239.368 1450.78 239.848 1450.59 240.472C1450.41 241.096 1450.29 241.664 1450.23 242.176C1450.18 242.688 1450.16 243.296 1450.16 244C1450.16 244.544 1450.16 245.024 1450.18 245.44C1450.21 245.84 1450.28 246.312 1450.4 246.856C1450.52 247.4 1450.69 247.848 1450.9 248.2C1451.11 248.552 1451.41 248.856 1451.81 249.112C1452.21 249.352 1452.69 249.472 1453.25 249.472C1455.35 249.472 1456.4 247.648 1456.4 244C1456.4 240.336 1455.35 238.504 1453.25 238.504ZM1466.1 250H1460.99V249.208H1462.86V238.768H1460.99V237.976H1466.1C1466.79 237.976 1467.38 238 1467.88 238.048C1468.37 238.096 1468.93 238.208 1469.56 238.384C1470.2 238.56 1470.69 238.864 1471.05 239.296C1471.4 239.728 1471.57 240.272 1471.57 240.928C1471.57 241.76 1471.29 242.392 1470.73 242.824C1470.17 243.256 1469.45 243.528 1468.57 243.64C1471.09 243.864 1472.34 244.856 1472.34 246.616C1472.34 247.128 1472.25 247.584 1472.05 247.984C1471.86 248.368 1471.58 248.68 1471.21 248.92C1470.86 249.16 1470.49 249.36 1470.11 249.52C1469.73 249.664 1469.27 249.768 1468.74 249.832C1468.23 249.896 1467.78 249.944 1467.4 249.976C1467.01 249.992 1466.58 250 1466.1 250ZM1469.08 241.048C1469.08 240.168 1468.8 239.568 1468.24 239.248C1467.68 238.912 1466.93 238.744 1465.98 238.744H1465.33V243.376H1466.25C1467.24 243.376 1467.96 243.224 1468.41 242.92C1468.85 242.6 1469.08 241.976 1469.08 241.048ZM1466.22 244.12H1465.33V249.232H1466.22C1467.34 249.232 1468.21 249.056 1468.84 248.704C1469.46 248.336 1469.77 247.64 1469.77 246.616C1469.77 246.072 1469.69 245.624 1469.51 245.272C1469.33 244.92 1469.06 244.664 1468.69 244.504C1468.33 244.344 1467.96 244.24 1467.59 244.192C1467.24 244.144 1466.78 244.12 1466.22 244.12Z" fill="white"/>
<path d="M189.35 505.85C177.917 505.85 168.817 502.35 162.05 495.35C155.517 488.817 148.867 474.7 142.1 453C134.4 426.633 126.7 408.55 119 398.75C111.3 389.183 102.083 384.4 91.35 384.4H79.45V490.45H110.25V502H14.7V490.45H43.4V272.05H14.7V260.5H107.8V272.05H79.45V373.2H103.6C111.533 373.2 118.183 369.817 123.55 363.05C128.217 356.75 132.883 342.167 137.55 319.3C140.117 307.4 142.217 298.65 143.85 293.05C145.25 287.217 147 282.433 149.1 278.7C156.1 264 166.833 256.65 181.3 256.65C191.8 256.65 199.967 259.567 205.8 265.4C211.633 271 214.55 279.05 214.55 289.55C214.55 306.583 207.2 315.1 192.5 315.1C185.267 315.1 179.55 313 175.35 308.8C170.917 305.067 168.7 299.467 168.7 292C168.7 285.933 170.45 280.8 173.95 276.6C177.683 272.4 182.583 269.95 188.65 269.25C187.017 268.083 183.983 267.5 179.55 267.5C173.25 267.5 168 270.65 163.8 276.95C159.6 283.483 155.283 297.367 150.85 318.6C145.95 341.467 141.05 356.983 136.15 365.15C131.017 373.083 124.6 377.75 116.9 379.15C131.6 385.217 141.867 389.883 147.7 393.15C158.433 399.683 166.6 408.667 172.2 420.1C175.467 427.8 179.083 439 183.05 453.7C188.417 471.433 192.15 481.7 194.25 484.5C196.817 487.767 199.85 489.4 203.35 489.4C207.317 489.4 210.35 485.783 212.45 478.55C214.317 470.617 215.25 459.65 215.25 445.65H225.4C225.4 452.883 225.283 458.6 225.05 462.8C224.817 467 224 472.25 222.6 478.55C221.433 484.617 219.683 489.4 217.35 492.9C215.017 496.4 211.4 499.433 206.5 502C201.833 504.567 196.117 505.85 189.35 505.85ZM389.848 505.85C366.748 505.85 354.615 492.2 353.448 464.9C349.715 477.5 342.715 487.533 332.448 495C322.415 502.233 310.748 505.85 297.448 505.85C283.215 505.85 271.665 502.583 262.798 496.05C254.165 489.283 249.848 479.133 249.848 465.6C249.848 458.6 251.715 452.183 255.448 446.35C259.181 440.283 263.265 435.5 267.698 432C272.365 428.5 278.781 425.117 286.948 421.85C295.348 418.35 301.765 415.9 306.198 414.5C310.865 413.1 317.281 411.35 325.448 409.25L350.648 402.6V378.1C350.648 350.1 338.398 336.1 313.898 336.1C300.831 336.1 289.748 340.183 280.648 348.35C293.015 352.083 299.198 359.783 299.198 371.45C299.198 378.45 297.098 383.933 292.898 387.9C288.931 391.867 283.448 393.85 276.448 393.85C269.681 393.85 264.198 391.867 259.998 387.9C256.031 383.7 254.048 378.217 254.048 371.45C254.048 360.95 258.015 351.85 265.948 344.15C273.881 336.217 282.981 330.617 293.248 327.35C303.748 324.083 314.015 322.45 324.048 322.45C365.815 322.45 386.698 339.833 386.698 374.6V472.25C386.698 478.083 387.748 482.517 389.848 485.55C391.481 488.583 394.398 490.1 398.598 490.1C410.265 490.1 416.098 476.333 416.098 448.8H426.598C426.598 456.733 426.248 463.617 425.548 469.45C424.848 475.05 423.331 480.883 420.998 486.95C418.665 493.017 414.815 497.683 409.448 500.95C404.315 504.217 397.781 505.85 389.848 505.85ZM287.298 460C287.298 468.167 289.398 474.583 293.598 479.25C297.798 483.917 303.865 486.25 311.798 486.25C321.598 486.25 329.531 482.983 335.598 476.45C341.898 469.683 345.981 462.333 347.848 454.4C349.715 446.233 350.648 437.25 350.648 427.45V413.1L329.298 419.4C316.465 422.9 306.198 427.8 298.498 434.1C291.031 440.167 287.298 448.8 287.298 460ZM587.847 453.35C587.847 471.783 580.497 485.2 565.797 493.6C551.33 501.767 534.064 505.85 513.997 505.85C503.03 505.85 492.647 504.567 482.847 502C473.047 499.433 464.18 494.533 456.247 487.3C448.314 480.067 444.347 470.85 444.347 459.65C444.347 452.417 446.214 446.7 449.947 442.5C453.914 438.067 459.514 435.85 466.747 435.85C473.747 435.85 479.114 437.833 482.847 441.8C486.58 445.533 488.447 450.9 488.447 457.9C488.447 463.733 486.464 468.4 482.497 471.9C478.764 475.4 473.864 477.617 467.797 478.55C474.797 489.283 489.03 494.65 510.497 494.65C537.33 494.65 550.747 480.533 550.747 452.3C550.747 438.767 546.78 429.667 538.847 425C530.914 420.333 519.48 418 504.547 418H488.797V406.45H504.547C518.314 406.45 528.347 403.533 534.647 397.7C540.947 391.867 544.097 382.183 544.097 368.65C544.097 346.95 532.547 336.1 509.447 336.1C495.447 336.1 485.064 340.3 478.297 348.7C471.764 357.1 467.214 369 464.647 384.4H453.797V324.9H463.947L472.697 338.2C485.297 327.7 501.28 322.45 520.647 322.45C537.914 322.45 552.147 326.067 563.347 333.3C574.78 340.3 580.497 351.85 580.497 367.95C580.497 380.317 576.297 390.117 567.897 397.35C559.497 404.583 548.764 409.133 535.697 411C550.164 412.633 562.414 416.833 572.447 423.6C582.714 430.367 587.847 440.283 587.847 453.35ZM678.888 472.25V490.45H706.538V502H615.538V490.45H642.838V337.85H615.538V326.65H706.538V337.85H678.888V452.65L754.838 355V337.85H727.188V326.65H817.838V337.85H790.888V490.45H817.838V502H727.188V490.45H754.838V374.6L678.888 472.25ZM885.858 345.2V490.45H915.258V502H843.858V490.45H871.158V337.85H843.858V326.65H914.908L966.358 435.15L1018.51 326.65H1087.46V337.85H1060.16V490.45H1087.46V502H995.758V490.45H1024.11V345.55L958.658 483.8H949.208L885.858 345.2ZM1176.54 472.25V490.45H1204.19V502H1113.19V490.45H1140.49V337.85H1113.19V326.65H1204.19V337.85H1176.54V452.65L1252.49 355V337.85H1224.84V326.65H1315.49V337.85H1288.54V490.45H1315.49V502H1224.84V490.45H1252.49V374.6L1176.54 472.25ZM1447.91 493.6C1455.61 493.6 1462.15 491.733 1467.51 488C1473.11 484.033 1477.31 479.483 1480.11 474.35C1482.91 469.217 1485.13 462.567 1486.76 454.4C1488.4 446.233 1489.33 439.467 1489.56 434.1C1490.03 428.5 1490.26 421.85 1490.26 414.15C1490.5 387.317 1487.23 367.367 1480.46 354.3C1473.7 341.933 1463.08 335.75 1448.61 335.75C1440.21 335.75 1432.86 338.317 1426.56 343.45C1420.5 348.35 1415.95 354.883 1412.91 363.05C1410.11 370.983 1408.01 378.8 1406.61 386.5C1405.45 394.2 1404.86 402.017 1404.86 409.95V430.25C1404.86 439.117 1405.33 446.933 1406.26 453.7C1407.43 460.233 1409.41 466.767 1412.21 473.3C1415.01 479.833 1419.45 484.85 1425.51 488.35C1431.58 491.85 1439.05 493.6 1447.91 493.6ZM1404.86 481.7V576.55H1443.71V589.5H1341.51V576.55H1368.81V339.6H1341.51V326.65C1358.55 326.65 1370.8 326.3 1378.26 325.6C1385.5 325.367 1390.75 324.083 1394.01 321.75L1398.91 324.9V376C1401.01 359.9 1407.08 346.95 1417.11 337.15C1427.38 327.35 1440.45 322.45 1456.31 322.45C1471.48 322.45 1484.66 327.233 1495.86 336.8C1507.3 346.133 1515.46 357.567 1520.36 371.1C1525.5 384.4 1528.06 398.517 1528.06 413.45C1528.06 437.95 1521.18 459.533 1507.41 478.2C1493.65 496.633 1474.86 505.85 1451.06 505.85C1430.76 505.85 1415.36 497.8 1404.86 481.7Z" fill="white"/>
<rect x="249.4" y="318.114" width="177.676" height="184.28" stroke="#FF0000" stroke-width="3"/>
<rect x="1340.01" y="503.479" width="105.199" height="83.4961" stroke="#FF0000" stroke-width="3"/>
<line x1="249.391" y1="318.241" x2="249.391" y2="46.0972" stroke="#FF0000" stroke-width="3"/>
<line x1="1340" y1="703.092" x2="1340" y2="588.475" stroke="#FF0000" stroke-width="3"/>
</svg>
