<svg width="1548" height="1094" viewBox="0 0 1548 1094" fill="none" xmlns="http://www.w3.org/2000/svg">
<rect x="775" y="1" width="772" height="1092" fill="#F4F3EE" stroke="#141412" stroke-width="2"/>
<rect x="1" y="1" width="772" height="1092" fill="#F4F3EE" stroke="#141412" stroke-width="2"/>
<rect x="776" y="2" width="134.65" height="1090" fill="url(#paint0_linear_114_127)"/>
<rect x="1546" y="2" width="149.725" height="770" transform="rotate(90 1546 2)" fill="url(#paint1_linear_114_127)"/>
<rect width="149.725" height="770" transform="matrix(-4.36781e-08 -1 -1 4.37447e-08 1546 1092)" fill="url(#paint2_linear_114_127)"/>
<rect x="1546" y="1092" width="137.643" height="1090" transform="rotate(-180 1546 1092)" fill="url(#paint3_linear_114_127)"/>
<rect x="2" y="2" width="217.435" height="1090" fill="url(#paint4_linear_114_127)"/>
<rect x="772" y="2" width="149.725" height="770" transform="rotate(90 772 2)" fill="url(#paint5_linear_114_127)"/>
<rect width="149.725" height="770" transform="matrix(-4.36781e-08 -1 -1 4.37447e-08 772 1092)" fill="url(#paint6_linear_114_127)"/>
<rect x="772" y="1092" width="137.643" height="1090" transform="rotate(-180 772 1092)" fill="url(#paint7_linear_114_127)"/>
<line x1="1082" y1="756.5" x2="1240" y2="756.5" stroke="#141412"/>
<defs>
<linearGradient id="paint0_linear_114_127" x1="776" y1="593.415" x2="910.65" y2="593.415" gradientUnits="userSpaceOnUse">
<stop stop-color="#EFE7DB"/>
<stop offset="1" stop-color="#DAD8D0" stop-opacity="0"/>
</linearGradient>
<linearGradient id="paint1_linear_114_127" x1="1546" y1="419.788" x2="1695.73" y2="419.788" gradientUnits="userSpaceOnUse">
<stop stop-color="#EFE7DB"/>
<stop offset="1" stop-color="#DAD8D0" stop-opacity="0"/>
</linearGradient>
<linearGradient id="paint2_linear_114_127" x1="-2.79458e-07" y1="417.788" x2="149.725" y2="417.788" gradientUnits="userSpaceOnUse">
<stop stop-color="#EFE7DB"/>
<stop offset="1" stop-color="#DAD8D0" stop-opacity="0"/>
</linearGradient>
<linearGradient id="paint3_linear_114_127" x1="1546" y1="1683.41" x2="1683.64" y2="1683.41" gradientUnits="userSpaceOnUse">
<stop stop-color="#EFE7DB"/>
<stop offset="1" stop-color="#DAD8D0" stop-opacity="0"/>
</linearGradient>
<linearGradient id="paint4_linear_114_127" x1="2" y1="593.415" x2="219.435" y2="593.415" gradientUnits="userSpaceOnUse">
<stop stop-color="#EDE8DF"/>
<stop offset="1" stop-color="#DAD8D0" stop-opacity="0"/>
</linearGradient>
<linearGradient id="paint5_linear_114_127" x1="772" y1="419.788" x2="921.725" y2="419.788" gradientUnits="userSpaceOnUse">
<stop stop-color="#EDE8DF"/>
<stop offset="1" stop-color="#DAD8D0" stop-opacity="0"/>
</linearGradient>
<linearGradient id="paint6_linear_114_127" x1="-2.79458e-07" y1="417.788" x2="149.725" y2="417.788" gradientUnits="userSpaceOnUse">
<stop stop-color="#EDE8DF"/>
<stop offset="1" stop-color="#DAD8D0" stop-opacity="0"/>
</linearGradient>
<linearGradient id="paint7_linear_114_127" x1="772" y1="1683.41" x2="909.643" y2="1683.41" gradientUnits="userSpaceOnUse">
<stop stop-color="#EDE8DF"/>
<stop offset="1" stop-color="#DAD8D0" stop-opacity="0"/>
</linearGradient>
</defs>
</svg>
