<svg width="1924" height="1296" viewBox="0 0 1924 1296" fill="none" xmlns="http://www.w3.org/2000/svg">
<rect x="2" y="2" width="1920" height="1292" fill="#F4F3EE"/>
<rect x="2" y="1294" width="156.711" height="1920" transform="rotate(-90 2 1294)" fill="url(#paint0_linear_116_154)"/>
<rect x="2" y="2" width="150" height="1292" fill="url(#paint1_linear_116_154)"/>
<rect width="150" height="1292" transform="matrix(-1 8.74228e-08 8.74228e-08 1 1922 2)" fill="url(#paint2_linear_116_154)"/>
<rect x="1922" y="2" width="160.194" height="1920" transform="rotate(90 1922 2)" fill="url(#paint3_linear_116_154)"/>
<rect x="2" y="2" width="1920" height="1292" stroke="#141412" stroke-width="3"/>
<path d="M376.92 570.6V575.28H379.8V576H372.96V575.28H374.88V564.72H372.96V564C374.464 564 375.368 563.976 375.672 563.928C375.96 563.912 376.192 563.824 376.368 563.664L376.608 563.88V567.384C376.96 564.968 378.016 563.76 379.776 563.76C380.544 563.76 381.176 563.984 381.672 564.432C382.184 564.88 382.44 565.488 382.44 566.256C382.44 566.752 382.32 567.16 382.08 567.48C381.856 567.784 381.504 567.936 381.024 567.936C380.576 567.936 380.216 567.808 379.944 567.552C379.672 567.296 379.536 566.944 379.536 566.496C379.536 566.048 379.68 565.696 379.968 565.44C380.272 565.168 380.648 565.016 381.096 564.984C380.92 564.808 380.728 564.672 380.52 564.576C380.248 564.496 379.976 564.456 379.704 564.456C377.848 564.456 376.92 566.504 376.92 570.6ZM389.429 576.24C387.717 576.24 386.381 575.64 385.421 574.44C384.477 573.224 384.005 571.728 384.005 569.952C384.005 568.256 384.461 566.8 385.373 565.584C386.301 564.368 387.581 563.76 389.213 563.76C390.749 563.76 391.925 564.264 392.741 565.272C393.557 566.28 393.965 567.568 393.965 569.136V569.688H386.165V569.952C386.165 570.544 386.173 571.048 386.189 571.464C386.221 571.88 386.301 572.36 386.429 572.904C386.557 573.448 386.733 573.896 386.957 574.248C387.181 574.584 387.501 574.872 387.917 575.112C388.349 575.352 388.861 575.472 389.453 575.472C390.461 575.472 391.253 575.216 391.829 574.704C392.405 574.176 392.845 573.4 393.149 572.376L393.821 572.568C393.533 573.688 393.005 574.584 392.237 575.256C391.485 575.912 390.549 576.24 389.429 576.24ZM389.165 564.504C388.573 564.504 388.069 564.64 387.653 564.912C387.253 565.168 386.957 565.536 386.765 566.016C386.573 566.496 386.437 566.96 386.357 567.408C386.277 567.856 386.221 568.376 386.189 568.968H391.829C391.845 567.432 391.637 566.296 391.205 565.56C390.773 564.856 390.093 564.504 389.165 564.504ZM398.856 567.6C398.856 568.496 399.056 569.256 399.456 569.88C399.856 570.488 400.488 570.792 401.352 570.792C402.216 570.792 402.848 570.488 403.248 569.88C403.648 569.272 403.848 568.512 403.848 567.6C403.848 565.472 403.016 564.408 401.352 564.408C399.688 564.408 398.856 565.472 398.856 567.6ZM401.28 573.96C405.2 573.96 407.16 575.296 407.16 577.968C407.16 578.992 406.864 579.832 406.272 580.488C405.696 581.16 405 581.616 404.184 581.856C403.368 582.112 402.456 582.24 401.448 582.24C400.792 582.24 400.152 582.184 399.528 582.072C398.92 581.976 398.304 581.8 397.68 581.544C397.056 581.304 396.552 580.928 396.168 580.416C395.8 579.92 395.616 579.32 395.616 578.616C395.616 577.864 395.928 577.216 396.552 576.672C397.176 576.144 397.888 575.784 398.688 575.592C397.248 575.4 396.528 574.656 396.528 573.36C396.528 572.656 396.8 572.096 397.344 571.68C397.888 571.264 398.528 571.04 399.264 571.008C398.544 570.672 397.952 570.208 397.488 569.616C397.04 569.024 396.816 568.352 396.816 567.6C396.816 566.432 397.264 565.504 398.16 564.816C399.072 564.112 400.136 563.76 401.352 563.76C401.576 563.76 401.864 563.776 402.216 563.808C402.392 563.84 402.656 563.904 403.008 564H407.568V564.72L404.328 564.648C405.368 565.336 405.888 566.32 405.888 567.6C405.888 568.736 405.424 569.664 404.496 570.384C403.584 571.088 402.536 571.44 401.352 571.44C400.104 571.44 399.232 571.536 398.736 571.728C398.208 571.952 397.944 572.272 397.944 572.688C397.944 573.136 398.192 573.456 398.688 573.648C399.152 573.856 400.016 573.96 401.28 573.96ZM397.68 578.568C397.68 579.576 398.04 580.304 398.76 580.752C399.496 581.216 400.4 581.448 401.472 581.448C402.624 581.448 403.6 581.216 404.4 580.752C405.2 580.304 405.6 579.552 405.6 578.496C405.6 577.936 405.472 577.472 405.216 577.104C404.976 576.736 404.632 576.464 404.184 576.288C403.752 576.128 403.32 576.024 402.888 575.976C402.472 575.912 401.992 575.88 401.448 575.88H399.672C399.048 576.04 398.56 576.36 398.208 576.84C397.856 577.336 397.68 577.912 397.68 578.568ZM418.09 576.336L417.85 576.12V572.808C417.546 575.096 416.306 576.24 414.13 576.24C412.69 576.24 411.674 575.816 411.082 574.968C410.506 574.12 410.218 572.944 410.218 571.44V564.72H408.058V564C409.802 564 410.866 563.976 411.25 563.928C411.618 563.912 411.874 563.824 412.018 563.664L412.258 563.88V571.176C412.258 571.736 412.282 572.224 412.33 572.64C412.394 573.04 412.506 573.448 412.666 573.864C412.842 574.28 413.114 574.6 413.482 574.824C413.85 575.048 414.314 575.16 414.874 575.16C416.65 575.16 417.538 573.68 417.538 570.72V564.72H414.418V564C416.482 564 417.786 563.976 418.33 563.928C418.874 563.88 419.21 563.792 419.338 563.664L419.578 563.88V575.28H421.498V576C420.074 576 418.938 576.112 418.09 576.336ZM428.809 575.28V576H422.929V575.28H424.849V558.72H422.929V558C424.097 558 424.985 557.984 425.593 557.952C426.057 557.92 426.409 557.824 426.649 557.664L426.889 557.88V575.28H428.809ZM439.883 576.24C438.395 576.24 437.619 575.312 437.555 573.456C437.299 574.336 436.835 575.024 436.163 575.52C435.491 576 434.699 576.24 433.787 576.24C432.827 576.24 432.059 576.024 431.483 575.592C430.907 575.144 430.619 574.456 430.619 573.528C430.619 573.128 430.691 572.76 430.835 572.424C430.995 572.088 431.227 571.792 431.531 571.536C431.851 571.28 432.147 571.064 432.419 570.888C432.707 570.696 433.091 570.52 433.571 570.36C434.051 570.184 434.411 570.056 434.651 569.976C434.891 569.896 435.243 569.792 435.707 569.664C435.947 569.6 436.163 569.544 436.355 569.496C436.563 569.432 436.739 569.376 436.883 569.328C437.027 569.28 437.107 569.256 437.123 569.256C437.155 569.256 437.259 569.224 437.435 569.16V567.504C437.435 565.584 436.595 564.624 434.915 564.624C433.907 564.624 433.115 564.936 432.539 565.56C432.939 565.656 433.243 565.832 433.451 566.088C433.643 566.36 433.739 566.68 433.739 567.048C433.739 568.008 433.259 568.488 432.299 568.488C431.835 568.488 431.475 568.368 431.219 568.128C430.979 567.872 430.859 567.512 430.859 567.048C430.859 566.184 431.307 565.416 432.203 564.744C433.099 564.088 434.171 563.76 435.419 563.76C438.123 563.76 439.475 564.928 439.475 567.264V574.008C439.475 574.408 439.555 574.712 439.715 574.92C439.859 575.144 440.067 575.256 440.339 575.256C441.171 575.256 441.587 574.288 441.587 572.352H442.235C442.235 572.88 442.211 573.336 442.163 573.72C442.115 574.088 442.019 574.488 441.875 574.92C441.731 575.336 441.491 575.664 441.155 575.904C440.819 576.128 440.395 576.24 439.883 576.24ZM432.779 573.192C432.779 574.456 433.379 575.088 434.579 575.088C435.315 575.088 435.907 574.856 436.355 574.392C436.803 573.928 437.091 573.408 437.219 572.832C437.363 572.24 437.435 571.576 437.435 570.84V569.808C437.371 569.824 437.219 569.872 436.979 569.952C436.595 570.08 436.227 570.2 435.875 570.312C435.411 570.472 435.035 570.616 434.747 570.744C434.475 570.856 434.163 571.024 433.811 571.248C433.459 571.472 433.195 571.752 433.019 572.088C432.859 572.408 432.779 572.776 432.779 573.192ZM447.397 570.6V575.28H450.277V576H443.437V575.28H445.357V564.72H443.437V564C444.941 564 445.845 563.976 446.149 563.928C446.437 563.912 446.669 563.824 446.845 563.664L447.085 563.88V567.384C447.437 564.968 448.493 563.76 450.253 563.76C451.021 563.76 451.653 563.984 452.149 564.432C452.661 564.88 452.917 565.488 452.917 566.256C452.917 566.752 452.797 567.16 452.557 567.48C452.333 567.784 451.981 567.936 451.501 567.936C451.053 567.936 450.693 567.808 450.421 567.552C450.149 567.296 450.013 566.944 450.013 566.496C450.013 566.048 450.157 565.696 450.445 565.44C450.749 565.168 451.125 565.016 451.573 564.984C451.397 564.808 451.205 564.672 450.997 564.576C450.725 564.496 450.453 564.456 450.181 564.456C448.325 564.456 447.397 566.504 447.397 570.6Z" fill="#141412"/>
<path d="M1438.88 559.896C1438.88 560.328 1438.74 560.688 1438.45 560.976C1438.16 561.248 1437.8 561.384 1437.37 561.384C1436.92 561.384 1436.55 561.248 1436.26 560.976C1435.99 560.704 1435.86 560.344 1435.86 559.896C1435.86 559.448 1435.99 559.088 1436.26 558.816C1436.55 558.528 1436.92 558.384 1437.37 558.384C1437.82 558.384 1438.18 558.528 1438.45 558.816C1438.74 559.088 1438.88 559.448 1438.88 559.896ZM1437.18 576.24C1436.38 576.24 1435.79 576 1435.42 575.52C1435.06 575.04 1434.94 574.328 1435.06 573.384L1436.1 564.72H1434.03L1434.13 564C1435.36 564 1436.3 563.976 1436.94 563.928C1437.54 563.912 1437.9 563.856 1438.02 563.76L1438.26 564L1437.08 573.744C1437.02 574.352 1437.04 574.784 1437.15 575.04C1437.25 575.312 1437.46 575.448 1437.78 575.448C1438.64 575.448 1439.18 574.424 1439.41 572.376H1440.06C1439.99 572.84 1439.93 573.216 1439.86 573.504C1439.82 573.792 1439.72 574.136 1439.58 574.536C1439.43 574.92 1439.26 575.224 1439.07 575.448C1438.9 575.656 1438.64 575.84 1438.3 576C1437.98 576.16 1437.61 576.24 1437.18 576.24ZM1444.46 576.24C1443.57 576.24 1442.94 575.968 1442.59 575.424C1442.21 574.88 1442.08 574.08 1442.21 573.024L1443.21 564.72H1441.46L1441.56 564C1443.43 564 1444.67 562.576 1445.28 559.728H1445.88L1445.35 564H1448.71L1448.61 564.72H1445.25L1444.2 573.408C1444.12 574.096 1444.15 574.6 1444.29 574.92C1444.44 575.272 1444.69 575.448 1445.06 575.448C1445.43 575.448 1445.74 575.336 1446 575.112C1446.27 574.888 1446.48 574.56 1446.62 574.128C1446.77 573.68 1446.86 573.336 1446.91 573.096C1446.97 572.84 1447.04 572.48 1447.1 572.016H1447.82C1447.73 572.656 1447.62 573.184 1447.51 573.6C1447.4 574.016 1447.22 574.448 1446.98 574.896C1446.76 575.344 1446.43 575.68 1446 575.904C1445.58 576.128 1445.07 576.24 1444.46 576.24ZM1453.64 576.24C1452.25 576.24 1451.2 575.664 1450.5 574.512C1449.79 573.344 1449.55 571.8 1449.75 569.88C1449.96 568.168 1450.57 566.72 1451.58 565.536C1452.59 564.352 1453.91 563.76 1455.54 563.76C1457.04 563.76 1458.05 564.576 1458.56 566.208L1460.27 563.76H1460.63L1459.4 573.744C1459.32 574.32 1459.35 574.744 1459.47 575.016C1459.6 575.304 1459.83 575.448 1460.17 575.448C1460.59 575.448 1460.92 575.2 1461.18 574.704C1461.43 574.208 1461.62 573.424 1461.73 572.352H1462.38C1462.15 573.92 1461.85 574.96 1461.47 575.472C1461.08 575.984 1460.51 576.24 1459.74 576.24C1459 576.24 1458.47 576.008 1458.15 575.544C1457.85 575.08 1457.75 574.36 1457.87 573.384L1458.03 572.04C1457.71 573.208 1457.18 574.2 1456.43 575.016C1455.67 575.832 1454.75 576.24 1453.64 576.24ZM1451.94 569.856C1451.76 571.616 1451.86 572.952 1452.23 573.864C1452.58 574.776 1453.19 575.232 1454.05 575.232C1454.66 575.232 1455.2 575.056 1455.68 574.704C1456.18 574.352 1456.56 573.888 1456.83 573.312C1457.12 572.736 1457.35 572.168 1457.51 571.608C1457.67 571.048 1457.79 570.472 1457.87 569.88L1457.96 569.256C1458.07 567.672 1457.93 566.488 1457.53 565.704C1457.13 564.936 1456.46 564.536 1455.51 564.504C1454.91 564.488 1454.37 564.656 1453.91 565.008C1453.44 565.36 1453.08 565.84 1452.83 566.448C1452.57 567.04 1452.37 567.616 1452.23 568.176C1452.1 568.72 1452 569.28 1451.94 569.856ZM1466.63 576.24C1465.83 576.24 1465.25 576 1464.88 575.52C1464.51 575.04 1464.39 574.328 1464.52 573.384L1466.34 558.72H1464.28L1464.37 558C1465.59 558 1466.53 557.976 1467.18 557.928C1467.79 557.912 1468.15 557.856 1468.26 557.76L1468.5 558L1466.53 573.744C1466.47 574.352 1466.49 574.784 1466.61 575.04C1466.7 575.312 1466.91 575.448 1467.23 575.448C1468.09 575.448 1468.64 574.408 1468.86 572.328H1469.51C1469.45 572.808 1469.38 573.192 1469.32 573.48C1469.27 573.752 1469.17 574.088 1469.03 574.488C1468.9 574.888 1468.74 575.2 1468.55 575.424C1468.36 575.632 1468.09 575.824 1467.76 576C1467.44 576.16 1467.06 576.24 1466.63 576.24ZM1475.79 559.896C1475.79 560.328 1475.65 560.688 1475.36 560.976C1475.07 561.248 1474.71 561.384 1474.28 561.384C1473.83 561.384 1473.47 561.248 1473.18 560.976C1472.91 560.704 1472.77 560.344 1472.77 559.896C1472.77 559.448 1472.91 559.088 1473.18 558.816C1473.47 558.528 1473.83 558.384 1474.28 558.384C1474.73 558.384 1475.09 558.528 1475.36 558.816C1475.65 559.088 1475.79 559.448 1475.79 559.896ZM1474.09 576.24C1473.29 576.24 1472.71 576 1472.34 575.52C1471.97 575.04 1471.85 574.328 1471.98 573.384L1473.01 564.72H1470.95L1471.04 564C1472.27 564 1473.21 563.976 1473.85 563.928C1474.46 563.912 1474.82 563.856 1474.93 563.76L1475.17 564L1473.99 573.744C1473.93 574.352 1473.95 574.784 1474.07 575.04C1474.16 575.312 1474.37 575.448 1474.69 575.448C1475.55 575.448 1476.1 574.424 1476.32 572.376H1476.97C1476.91 572.84 1476.84 573.216 1476.78 573.504C1476.73 573.792 1476.63 574.136 1476.49 574.536C1476.35 574.92 1476.18 575.224 1475.99 575.448C1475.81 575.656 1475.55 575.84 1475.22 576C1474.9 576.16 1474.52 576.24 1474.09 576.24ZM1482.79 576.24C1481.19 576.24 1479.98 575.664 1479.14 574.512C1478.3 573.36 1477.98 571.888 1478.18 570.096C1478.38 568.32 1478.97 566.824 1479.96 565.608C1480.97 564.376 1482.32 563.76 1484.02 563.76C1484.93 563.76 1485.71 564 1486.37 564.48C1487.04 564.944 1487.38 565.608 1487.4 566.472C1487.4 566.952 1487.26 567.352 1486.97 567.672C1486.68 567.976 1486.3 568.128 1485.82 568.128C1485.4 568.128 1485.07 568.008 1484.83 567.768C1484.58 567.56 1484.45 567.256 1484.45 566.856C1484.43 566.392 1484.55 566.008 1484.81 565.704C1485.05 565.4 1485.37 565.224 1485.77 565.176C1485.37 564.696 1484.78 564.456 1483.99 564.456C1483.37 564.456 1482.82 564.64 1482.34 565.008C1481.87 565.376 1481.5 565.864 1481.23 566.472C1480.96 567.064 1480.75 567.64 1480.61 568.2C1480.48 568.76 1480.38 569.344 1480.32 569.952C1480.14 571.632 1480.3 572.96 1480.78 573.936C1481.26 574.928 1482.02 575.424 1483.08 575.424C1483.94 575.424 1484.66 575.136 1485.22 574.56C1485.78 573.984 1486.17 573.248 1486.39 572.352L1487.09 572.52C1486.4 575 1484.97 576.24 1482.79 576.24Z" fill="#141412"/>
<line x1="873" y1="561.5" x2="1031" y2="561.5" stroke="#141412"/>
<line x1="873" y1="670.5" x2="1031" y2="670.5" stroke="#141412"/>
<line x1="873" y1="779.5" x2="1031" y2="779.5" stroke="#141412"/>
<line x1="873" y1="888.5" x2="1031" y2="888.5" stroke="#141412"/>
<line x1="873" y1="997.5" x2="1031" y2="997.5" stroke="#141412"/>
<defs>
<linearGradient id="paint0_linear_116_154" x1="2" y1="2335.76" x2="158.711" y2="2335.76" gradientUnits="userSpaceOnUse">
<stop stop-color="#EFE7DB"/>
<stop offset="1" stop-color="#DAD8D0" stop-opacity="0"/>
</linearGradient>
<linearGradient id="paint1_linear_116_154" x1="2" y1="703.016" x2="152" y2="703.016" gradientUnits="userSpaceOnUse">
<stop stop-color="#EFE7DB"/>
<stop offset="1" stop-color="#DAD8D0" stop-opacity="0"/>
</linearGradient>
<linearGradient id="paint2_linear_116_154" x1="-2.7997e-07" y1="701.016" x2="150" y2="701.016" gradientUnits="userSpaceOnUse">
<stop stop-color="#EFE7DB"/>
<stop offset="1" stop-color="#DAD8D0" stop-opacity="0"/>
</linearGradient>
<linearGradient id="paint3_linear_116_154" x1="1922" y1="1043.76" x2="2082.19" y2="1043.76" gradientUnits="userSpaceOnUse">
<stop stop-color="#EFE7DB"/>
<stop offset="1" stop-color="#DAD8D0" stop-opacity="0"/>
</linearGradient>
</defs>
</svg>
